<?xml version="1.0"?>
<svg xmlns="http://www.w3.org/2000/svg" xmlns:xlink="http://www.w3.org/1999/xlink" version="1.1" id="Layer_1" x="0px" y="0px" viewBox="0 0 495 495" style="enable-background:new 0 0 495 495;" xml:space="preserve" width="512px" height="512px" class=""><g><g>
	<polygon style="fill:#2F3192" points="247.5,495 371.68,495 338.34,395 247.5,395  " data-original="#FF9811" class="" data-old_color="#2f3192"/>
	<polygon style="fill:#2F3192" points="247.5,395 156.66,395 123.32,495 247.5,495  " data-original="#FFB655" class="" data-old_color="#2f3192"/>
	<path style="fill:#B8BABC" d="M406.452,178.202L443.9,260.32h43.963L419.313,110H267.5V95.813c-6.129,2.686-12.891,4.187-20,4.187   s-13.871-1.501-20-4.187V110H75.688L7.137,260.32H51.1l37.448-82.118l37.448,82.118h43.963L119.651,150H227.5v245h40V150h107.849   L325.04,260.32h43.963L406.452,178.202z" data-original="#FFE477" class="active-path" data-old_color="#b8babc"/>
	<path style="fill:#2F3192" d="M406.45,260.32v108.54c48.83,0,88.55-39.72,88.55-88.54v-20H406.45z" data-original="#FF9811" class="" data-old_color="#2f3192"/>
	<path style="fill:#2F3192" d="M317.9,260.32v20c0,48.82,39.73,88.54,88.55,88.54V260.32H317.9z" data-original="#FFB655" class="" data-old_color="#2f3192"/>
	<path style="fill:#2F3192" d="M88.55,260.32v108.54c48.82,0,88.55-39.72,88.55-88.54v-20H88.55z" data-original="#FF9811" class="" data-old_color="#2f3192"/>
	<path style="fill:#2F3192" d="M0,260.32v20c0,48.82,39.72,88.54,88.55,88.54V260.32H0z" data-original="#FFB655" class="" data-old_color="#2f3192"/>
	<path style="fill:#2F3192" d="M247.5,0c-27.57,0-50,22.43-50,50c0,20.461,12.359,38.081,30,45.813   c6.129,2.686,12.891,4.187,20,4.187V0z" data-original="#FFB655" class="" data-old_color="#2f3192"/>
	<path style="fill:#2F3192" d="M247.5,100c7.109,0,13.871-1.501,20-4.187c17.641-7.731,30-25.351,30-45.813c0-27.57-22.43-50-50-50   V100z" data-original="#FF9811" class="" data-old_color="#2f3192"/>
</g></g> </svg>
